<svg xmlns="http://www.w3.org/2000/svg" width="85.33" height="85.33" version="1.0" viewBox="0 0 64 64"><path d="M25 6.9c-4.6 1.5-8.5 3.9-11.6 7.3C8 19.9 6.5 23.7 6.5 32S8 44.1 13.4 49.8c5.3 5.7 10.1 7.7 18.6 7.7 5.7 0 8.4-.5 11.5-2.2 4.7-2.5 9.5-7.4 12.1-12.3 2.6-4.9 2.6-17.1 0-22-2.6-4.9-7.4-9.8-12.1-12.2C39.2 6.6 29.1 5.5 25 6.9zM27.7 24c1.8 1.6 3.9 3 4.5 3 .5 0 2.6-1.4 4.5-3 2.7-2.4 3.8-2.9 4.9-1.9 1.6 1.3.7 3.4-2.5 6.3-2.8 2.6-2.6 4.2.9 8.3 2.4 2.7 2.9 3.8 1.9 4.9-1.3 1.6-3.4.7-6.3-2.5-2.6-2.8-3.9-2.7-8.1 1.1-3.2 2.8-3.8 3-5.1 1.6-1.4-1.4-1.2-1.9 1.5-5.1 1.7-1.9 3.1-4 3.1-4.7 0-.7-1.4-2.8-3-4.7-2.5-2.8-2.9-3.8-1.9-4.9 1.5-1.9 1.6-1.9 5.6 1.6z"/></svg>