<svg xmlns="http://www.w3.org/2000/svg" width="64" height="64" version="1.0" viewBox="0 0 48 48"><path d="M20 8c0 .5-2.5 1-5.5 1-4.2 0-5.5.3-5.5 1.5 0 1.3 2.3 1.5 15 1.5s15-.2 15-1.5C39 9.3 37.7 9 33.5 9c-3 0-5.5-.5-5.5-1 0-.6-1.8-1-4-1s-4 .4-4 1zM11 24.9C11 39 11 39 24 39s13 0 13-14.1V14H11v10.9zm15.4-2.8c3.1-2.9 4.7-.9 1.7 2.3L26 26.7l2 1.8c1.1 1 2 2.2 2 2.7 0 1.3-2.2.9-4.2-.9-1.7-1.5-1.9-1.5-3.6 0-2 1.8-4.2 2.2-4.2.9 0-.5.9-1.7 2-2.7l2-1.8-2.1-2.3c-3-3.2-1.4-5.2 1.7-2.3l2.4 2.2 2.4-2.2z"/></svg>